HIERARCHY
ROOT Hips
{
  OFFSET 0 0 0
  CHANNELS 6 Xposition Yposition Zposition Zrotation Yrotation Xrotation
  JOINT LeftThigh
  {
    OFFSET 8.409438 0 -5.917753
    CHANNELS 3 Zrotation Yrotation Xrotation
    JOINT LeftLeg
    {
      OFFSET 0 0 -42.358652
      CHANNELS 3 Zrotation Yrotation Xrotation
      JOINT LeftFoot
      {
        OFFSET 0 0 -39.357303
        CHANNELS 3 Zrotation Yrotation Xrotation
      }
    }
  }
  JOINT RightThigh
  {
    OFFSET -8.409438 0 -5.917753
    CHANNELS 3 Zrotation Yrotation Xrotation
    JOINT RightLeg
    {
      OFFSET 0 0 -42.358652
      CHANNELS 3 Zrotation Yrotation Xrotation
      JOINT RightFoot
      {
        OFFSET 0 0 -39.357303
        CHANNELS 3 Zrotation Yrotation Xrotation
      }
    }
  }
  JOINT SpineLow
  {
    OFFSET 0 0 4.719101
    CHANNELS 3 Zrotation Yrotation Xrotation
    JOINT SpineMid
    {
      OFFSET 0 0 12.899191
      CHANNELS 3 Zrotation Yrotation Xrotation
      JOINT Chest
      {
        OFFSET 0 0 12.899191
        CHANNELS 3 Zrotation Yrotation Xrotation
        JOINT LeftShoulder
        {
          OFFSET 7.550562 1.41573 9.438202
          CHANNELS 3 Zrotation Yrotation Xrotation
          JOINT LeftArm
          {
            OFFSET 9.155056 0 4.247191
            CHANNELS 3 Zrotation Yrotation Xrotation
            JOINT LeftForearm
            {
              OFFSET 0 0 25.771955
              CHANNELS 3 Zrotation Yrotation Xrotation
              JOINT LeftHand
              {
                OFFSET 0 0 25.197169
                CHANNELS 3 Zrotation Yrotation Xrotation
              }
            }
          }
        }
        JOINT RightShoulder
        {
          OFFSET -7.550562 1.41573 9.438202
          CHANNELS 3 Zrotation Yrotation Xrotation
          JOINT RightArm
          {
            OFFSET -9.155056 0 4.247191
            CHANNELS 3 Zrotation Yrotation Xrotation
            JOINT RightForearm
            {
              OFFSET 0 0 -25.771955
              CHANNELS 3 Zrotation Yrotation Xrotation
              JOINT RightHand
              {
                OFFSET 0 0 -25.197169
                CHANNELS 3 Zrotation Yrotation Xrotation
              }
            }
          }
        }
        JOINT Neck
        {
          OFFSET 0 0 15.101124
          CHANNELS 3 Zrotation Yrotation Xrotation
          JOINT Head
          {
            OFFSET 0 0 11.325843
            CHANNELS 3 Zrotation Yrotation Xrotation
            End Site
            {
              OFFSET 0 0 14.157303
            }
          }
        }
      }
    }
  }
}
MOTION
Frames: 10
Frame Time: 0.0
0.0  93.25843  0.0  -4.668225  -42.47894  -92.733624  40.969327  -28.885109  -42.592827  0.70586  8.192225  38.649658  6.61631  1.910249  6.765732  1.040462  20.554689  1.827663  -1.64813  3.688296  27.997387  -1.776908  5.211568  -5.106819  2.429098  -0.426004  0.130799  6.638017  -1.176215  0.314381  6.638016  -1.176215  0.314381  -16.724607  8.051463  4.914859  -116.888389  64.870306  -64.531242  -39.210228  18.822832  86.550233  66.086191  -29.312188  -1.68784  -2.424469  -13.664053  18.382212  85.070101  37.023116  31.990376  -4.375527  -9.712088  -118.592034  68.571962  -18.252927  -10.938358  -16.304177  4.832014  7.073427  -12.278804  3.438803  5.435715  
0.0  93.25843  0.0  -4.736002  -41.81531  -92.370995  41.040644  -28.130454  -43.404717  0.556068  8.12924  39.000098  7.011985  1.912509  6.895523  1.448319  20.552467  2.238236  -2.186977  3.585239  27.352332  -1.625269  5.416522  -4.989064  2.414053  -0.50308  0.044625  6.598521  -1.377995  0.07166  6.598522  -1.377996  0.07166  -16.6696  8.510403  5.089422  -116.866127  65.019725  -64.046336  -39.443028  18.616024  86.404792  65.956767  -29.278067  -1.597164  -2.762495  -13.272838  18.560352  84.848098  36.7909  31.788596  -4.910059  -9.497566  -118.323527  68.314752  -18.146757  -9.624929  -16.535137  5.175248  7.2124  -12.456112  3.690179  5.550823  
0.0  93.25843  0.0  -4.856695  -41.084244  -91.945475  41.171908  -27.431371  -44.193212  0.348568  8.218611  39.340684  7.226566  1.895834  6.89385  1.657154  20.604995  2.589864  -2.766238  3.332783  26.693709  -1.843136  5.456223  -4.836611  2.401607  -0.602483  -0.064488  6.567395  -1.638557  -0.235913  6.567395  -1.638557  -0.235913  -16.635573  9.229232  5.354092  -116.752724  65.147127  -63.435939  -39.576147  18.317419  86.252749  65.874329  -29.205216  -1.533237  -2.690176  -12.783852  18.967456  83.961977  36.808241  31.233571  -5.571664  -9.105425  -118.063577  68.130136  -17.974627  -8.201407  -16.743639  5.606924  7.376651  -12.61765  4.007451  5.687208  
0.0  93.25843  0.0  -4.910899  -40.354228  -91.698886  40.757592  -26.863124  -44.885268  0.448224  8.144637  39.984812  7.411667  1.85662  6.85258  1.868954  20.77361  3.101056  -3.382311  3.026401  26.007263  -2.150987  5.445295  -4.709751  2.428374  -0.738805  -0.163652  6.644556  -2.000673  -0.521102  6.644556  -2.000673  -0.521102  -16.807706  10.289737  5.631529  -116.769324  65.284087  -62.973043  -39.600038  17.986641  86.153963  65.945468  -29.079751  -1.491374  -2.995688  -12.125644  19.358647  83.200703  36.78956  30.718827  -6.280654  -8.375054  -117.938417  67.868383  -17.830773  -6.487652  -17.10977  6.168684  7.512647  -12.898201  4.42123  5.807757  
0.0  93.25843  0.0  -4.962994  -39.304983  -91.625385  40.074329  -26.491452  -45.183298  0.42758  8.261775  40.324696  7.575454  1.832749  6.81207  1.800886  20.977005  3.800274  -4.060433  2.729472  25.267373  -2.392561  5.454117  -4.611482  2.392092  -0.858343  -0.232155  6.549201  -2.320575  -0.719  6.549201  -2.320575  -0.719  -16.759342  11.22189  5.951263  -117.091802  65.359408  -62.711674  -39.481226  17.503338  86.078357  66.129311  -28.884573  -1.473602  -2.925151  -11.633402  19.835323  82.15346  37.03534  30.020204  -7.369655  -7.579111  -117.615641  67.74832  -17.634574  -4.949611  -17.3919  6.65769  7.631386  -13.114978  4.781755  5.913023  
0.0  93.25843  0.0  -4.921454  -38.184978  -91.67072  38.734912  -26.172716  -45.397237  0.770978  8.156141  40.928319  7.81438  1.781193  6.824058  1.614659  21.243324  4.585403  -4.803052  2.441448  24.453216  -2.532713  5.475461  -4.492863  2.382733  -0.880743  -0.226997  6.523774  -2.382351  -0.706806  6.523774  -2.382351  -0.706806  -17.000254  11.397186  5.938102  -117.687413  65.482241  -62.937155  -39.296048  16.951811  86.132668  66.357622  -28.595655  -1.512947  -3.739229  -11.896855  19.449036  82.246674  36.932758  29.953486  -8.597339  -6.799885  -117.285206  67.816374  -17.396196  -3.398459  -17.909607  6.710124  7.610445  -13.503062  4.815546  5.904792  
0.0  93.25843  0.0  -4.894252  -37.002094  -91.548385  37.611004  -25.825537  -45.510567  0.869646  8.330375  41.16388  7.991949  1.775003  6.790213  1.255958  21.509051  5.247372  -5.299044  2.182966  23.537091  -2.682038  5.463519  -4.357153  2.390945  -0.925515  -0.231854  6.547108  -2.504014  -0.724827  6.547108  -2.504014  -0.724827  -17.256719  11.654386  5.798701  -118.667157  65.693407  -63.347087  -39.090803  16.236644  86.124572  66.39696  -28.269601  -1.572341  -3.644335  -11.900072  19.254553  81.200699  37.469654  29.239555  -9.98415  -5.983702  -116.946035  67.965388  -17.14157  -2.067931  -18.458576  6.867013  7.524827  -13.914583  4.929403  5.851523  
0.0  93.25843  0.0  -4.760269  -36.111633  -91.430642  36.378073  -25.422061  -45.616248  1.116272  8.421907  41.53981  8.207918  1.805236  6.764608  1.038748  21.827165  5.825971  -5.855741  1.864823  22.598954  -2.679215  5.579298  -4.222252  2.437192  -0.945337  -0.265307  6.675171  -2.554198  -0.819958  6.675171  -2.554198  -0.819958  -17.333514  11.786585  5.740578  -119.911781  66.111996  -64.102738  -38.990388  15.762385  86.101842  66.431588  -27.941812  -1.58415  -3.435084  -12.085594  19.047021  80.236353  38.134446  28.619675  -11.581223  -5.050548  -116.53303  68.265947  -16.826108  -0.980972  -18.992772  6.999234  7.554757  -14.316154  5.021515  5.884287  
0.0  93.25843  0.0  -4.617878  -35.081629  -91.218597  35.159353  -25.000079  -45.592073  1.189122  8.71346  41.657592  8.289108  1.889035  6.690056  0.578242  22.241652  6.266442  -5.98545  1.541136  21.647865  -2.915942  5.594109  -4.042949  2.492591  -0.913726  -0.341544  6.828912  -2.459277  -1.027013  6.828912  -2.459277  -1.027013  -17.587549  11.632951  5.790966  -121.334579  66.648892  -65.033647  -38.91831  15.410118  85.908082  66.677788  -27.535819  -1.658659  -3.220474  -12.499535  18.883504  78.983328  39.076582  27.832699  -13.358006  -3.849824  -116.135282  68.681071  -16.435342  0.060154  -19.610443  7.017822  7.735815  -14.781254  5.022439  6.028213  
0.0  93.25843  0.0  -4.03092  -35.126194  -91.464733  34.382842  -24.506938  -45.174645  1.48775  8.931361  41.948799  8.41132  1.961251  6.615838  1.211097  23.025289  6.939528  -6.139795  1.244833  20.660863  -3.09177  5.63988  -3.864449  2.720991  -0.816211  -0.347711  7.451635  -2.18863  -1.041178  7.451635  -2.18863  -1.041178  -17.840454  11.239347  5.672348  -122.950711  67.334775  -66.169858  -38.721504  15.085624  85.752671  67.207218  -27.103907  -1.927055  -3.013554  -13.006979  18.390204  77.642595  40.249702  27.01402  -15.300906  -2.279669  -115.796934  69.0907  -15.891847  1.06839  -20.272576  6.92971  7.871399  -15.278308  4.9438  6.135292  
